<svg xmlns="http://www.w3.org/2000/svg" viewBox="0 0 219.5 46.7"><defs><style>.cls-1,.cls-2{fill:#1b325c;}.cls-2{font-size:5.8px;font-family:Montserrat-Regular, Montserrat;}.cls-3{letter-spacing:-0.03em;}.cls-4{letter-spacing:-0.03em;}.cls-5{letter-spacing:-0.02em;}.cls-6{letter-spacing:-0.02em;}.cls-7{letter-spacing:-0.02em;}.cls-8{letter-spacing:-0.02em;}.cls-9{letter-spacing:-0.07em;}.cls-10{letter-spacing:-0.02em;}.cls-11{letter-spacing:-0.02em;}.cls-12{letter-spacing:-0.04em;}.cls-13{letter-spacing:-0.04em;}.cls-14{letter-spacing:-0.03em;}.cls-15{letter-spacing:-0.03em;}.cls-16{letter-spacing:-0.02em;}.cls-17{letter-spacing:-0.02em;}.cls-18{letter-spacing:-0.02em;}.cls-19{fill:#f6eb1c;}</style></defs><title>logotekmira</title><g id="Layer_2" data-name="Layer 2"><g id="Layer_1-2" data-name="Layer 1"><path class="cls-1" d="M77.72,26.45H73a.47.47,0,0,0-.31.12.53.53,0,0,0-.18.29l-.33,1.4a2,2,0,0,1-.52,1.14,1.93,1.93,0,0,1-1.18.25c-.69,0-1-.15-1.1-.27a3,3,0,0,1,.12-1.68L71,21.26h7.15a.47.47,0,0,0,.31-.12.59.59,0,0,0,.19-.29l.9-3.89a.39.39,0,0,0,0-.29.32.32,0,0,0-.26-.13H72.11l.65-2.81a.39.39,0,0,0-.05-.29.29.29,0,0,0-.25-.13H66.8a.55.55,0,0,0-.31.12.49.49,0,0,0-.17.29l-.66,2.82H64a.52.52,0,0,0-.31.12.55.55,0,0,0-.18.3l-.9,3.89a.33.33,0,0,0,.05.29.28.28,0,0,0,.25.12h1.65l-1.68,7.27A10.35,10.35,0,0,0,62.54,31a3.25,3.25,0,0,0,2.11,3,7.6,7.6,0,0,0,2.74.44h3A7.51,7.51,0,0,0,75.15,33a7.19,7.19,0,0,0,2.44-4.25L78,26.87a.34.34,0,0,0,0-.3.32.32,0,0,0-.26-.12"/><path class="cls-1" d="M97,18c-.92-1.14-2.73-1.65-5.38-1.66H89.19c-2.65,0-4.7.51-6.15,1.65s-2.4,3.06-3,5.66l-.81,3.46c-.59,2.6-.51,4.51.4,5.65S82.36,34.39,85,34.4h2.39a10.47,10.47,0,0,0,5.71-1.34,7.7,7.7,0,0,0,3-4.4.36.36,0,0,0,0-.31.27.27,0,0,0-.25-.14H90.25a.58.58,0,0,0-.49.36,2,2,0,0,1-.68,1.12,2.73,2.73,0,0,1-1.45.29h-.74c-.79,0-1.24-.16-1.4-.36s-.23-.58-.07-1.29l.39-1.64H96.25a.45.45,0,0,0,.31-.12.55.55,0,0,0,.18-.29l.61-2.64C98,21,97.86,19.14,97,18m-5.78,4.9,0,.18h-4.5l.08-.34a3.49,3.49,0,0,1,.79-1.8,2.4,2.4,0,0,1,1.6-.4h.73c.86,0,1.31.19,1.42.41a3.08,3.08,0,0,1-.08,1.95"/><path class="cls-1" d="M111.11,25l6.53-7.84a.48.48,0,0,0,.12-.42.32.32,0,0,0-.31-.21H111a.55.55,0,0,0-.4.21l-4.47,5.72L109.06,10a.33.33,0,0,0,0-.28.3.3,0,0,0-.25-.13H103.1a.42.42,0,0,0-.3.12.45.45,0,0,0-.18.29l-5.5,23.75a.34.34,0,0,0,0,.3.29.29,0,0,0,.25.12h5.66a.44.44,0,0,0,.3-.12.55.55,0,0,0,.19-.29l1.39-6L107.44,34a.29.29,0,0,0,.28.19h6.61a.53.53,0,0,0,.41-.22.46.46,0,0,0,.08-.43Z"/><path class="cls-1" d="M180.17,15.91h-3.42v5.3h3.42a3.3,3.3,0,0,0,2.06-.45,2.34,2.34,0,0,0,.48-1.73v-.9a2.35,2.35,0,0,0-.49-1.76,3.34,3.34,0,0,0-2.05-.46"/><polygon class="cls-1" points="202.31 24.47 206.84 24.47 204.6 15.89 202.31 24.47"/><path class="cls-1" d="M216.81,7.11H121.75a2.47,2.47,0,0,0-2.47,2.47V34.07a2.47,2.47,0,0,0,2.47,2.47h95.06a2.47,2.47,0,0,0,2.47-2.47V9.58a2.47,2.47,0,0,0-2.47-2.47M153.65,33.76a.45.45,0,0,1-.12.29.39.39,0,0,1-.28.12h-6.66a.42.42,0,0,1-.29-.12.4.4,0,0,1-.12-.29V19.28l-4.32,14.6a.41.41,0,0,1-.39.29h-6.83a.41.41,0,0,1-.39-.29L129.89,19.1V33.76a.44.44,0,0,1-.11.29.42.42,0,0,1-.29.12h-6.66a.36.36,0,0,1-.28-.12.45.45,0,0,1-.12-.29V10.27a.45.45,0,0,1,.12-.29.4.4,0,0,1,.28-.12h10a.4.4,0,0,1,.38.29L138,25.89l4.85-15.74a.41.41,0,0,1,.39-.29h10a.41.41,0,0,1,.4.41Zm11.6,0a.4.4,0,0,1-.12.29.36.36,0,0,1-.28.12H158a.36.36,0,0,1-.28-.12.39.39,0,0,1-.11-.29V10.27a.39.39,0,0,1,.11-.29.42.42,0,0,1,.28-.12h6.9a.41.41,0,0,1,.4.41ZM190.46,18.6a5.64,5.64,0,0,1-1.36,4A5.16,5.16,0,0,1,186.94,24a5.69,5.69,0,0,1,2.23,1.28,5,5,0,0,1,1.29,3.67v4.84a.4.4,0,0,1-.12.29.38.38,0,0,1-.29.12h-7a.41.41,0,0,1-.41-.41V29.53a2.33,2.33,0,0,0-.49-1.75,3.18,3.18,0,0,0-2.05-.46h-3.38v6.44a.4.4,0,0,1-.12.29.38.38,0,0,1-.28.12h-6.83a.36.36,0,0,1-.28-.12.4.4,0,0,1-.12-.29V10.27a.41.41,0,0,1,.4-.41h10.27c4,0,6.69.46,8.29,1.49s2.39,2.89,2.38,5.36ZM217.36,34a.4.4,0,0,1-.33.17h-7.32a.44.44,0,0,1-.4-.3l-1.06-3.8h-7.42l-1.07,3.81a.42.42,0,0,1-.39.29h-7.32a.42.42,0,0,1-.34-.17.45.45,0,0,1-.05-.36L199,10.14a.42.42,0,0,1,.39-.28h10.51a.4.4,0,0,1,.38.29l7.16,23.49a.45.45,0,0,1-.06.36"/><text class="cls-2" transform="translate(97.1 42.9)"><tspan class="cls-3">L</tspan><tspan class="cls-4" x="3.26" y="0">e</tspan><tspan class="cls-5" x="6.57" y="0">a</tspan><tspan class="cls-6" x="9.89" y="0">d</tspan><tspan class="cls-7" x="13.71" y="0">i</tspan><tspan class="cls-8" x="15.15" y="0">n</tspan><tspan class="cls-6" x="18.98" y="0">g </tspan><tspan class="cls-9" x="24.26" y="0">T</tspan><tspan class="cls-6" x="27.16" y="0">e</tspan><tspan class="cls-7" x="30.56" y="0">s</tspan><tspan class="cls-10" x="33.28" y="0">t</tspan><tspan class="cls-7" x="35.52" y="0">i</tspan><tspan class="cls-11" x="36.97" y="0">n</tspan><tspan class="cls-6" x="40.79" y="0">g</tspan><tspan class="cls-7" x="44.66" y="0"> </tspan><tspan class="cls-12" x="46.06" y="0">C</tspan><tspan class="cls-10" x="49.98" y="0">en</tspan><tspan class="cls-13" x="57.2" y="0">t</tspan><tspan class="cls-10" x="59.33" y="0">er</tspan><tspan class="cls-7" x="64.94" y="0"> </tspan><tspan class="cls-14" x="66.34" y="0">f</tspan><tspan class="cls-10" x="68.15" y="0">or M</tspan><tspan class="cls-7" x="80.73" y="0">i</tspan><tspan class="cls-8" x="82.18" y="0">n</tspan><tspan class="cls-10" x="86" y="0">e</tspan><tspan class="cls-15" x="89.4" y="0">r</tspan><tspan class="cls-10" x="91.56" y="0">a</tspan><tspan class="cls-7" x="94.87" y="0">l</tspan><tspan class="cls-10" x="96.32" y="0"> </tspan><tspan class="cls-16" x="97.73" y="0">a</tspan><tspan class="cls-17" x="101.04" y="0">n</tspan><tspan class="cls-16" x="104.86" y="0">d</tspan><tspan class="cls-10" x="108.68" y="0"> </tspan><tspan class="cls-12" x="110.09" y="0">C</tspan><tspan class="cls-18" x="114.01" y="0">o</tspan><tspan class="cls-10" x="117.52" y="0">a</tspan><tspan x="120.84" y="0">l</tspan></text><polygon class="cls-1" points="97.76 42.9 100.47 42.9 100.47 42.52 98.19 42.52 98.19 38.84 97.76 38.84 97.76 42.9"/><path class="cls-1" d="M102.11,40.18a1.06,1.06,0,0,1,1.09,1H101A1,1,0,0,1,102.11,40.18Zm1.48,1.19a1.45,1.45,0,0,0-1.48-1.55,1.48,1.48,0,0,0-1.49,1.55,1.61,1.61,0,0,0,2.78,1.06l-.23-.27a1.18,1.18,0,0,1-.93.4A1.12,1.12,0,0,1,101,41.5h2.55Z"/><path class="cls-1" d="M105.16,42.6c-.49,0-.78-.22-.78-.57s.19-.55.79-.55h1V42A1,1,0,0,1,105.16,42.6Zm.14-2.78a2,2,0,0,0-1.24.41l.18.31a1.56,1.56,0,0,1,1-.36.75.75,0,0,1,.86.81v.18h-1c-.88,0-1.18.4-1.18.87s.42.89,1.11.89a1.14,1.14,0,0,0,1-.51v.48h.4V41A1.09,1.09,0,0,0,105.3,39.82Z"/><path class="cls-1" d="M108.8,42.56a1.19,1.19,0,1,1,1.13-1.19A1.12,1.12,0,0,1,108.8,42.56Zm1.12-4v1.83a1.33,1.33,0,0,0-1.16-.6,1.56,1.56,0,0,0,0,3.11,1.33,1.33,0,0,0,1.18-.64v.61h.4V38.59Z"/><path class="cls-1" d="M111.37,42.9h.41V39.84h-.41Zm.21-3.72a.3.3,0,0,0,.3-.3.3.3,0,0,0-.6,0A.3.3,0,0,0,111.58,39.18Z"/><path class="cls-1" d="M114.37,39.82a1.28,1.28,0,0,0-1.16.59v-.57h-.4V42.9h.41V41.29a1,1,0,0,1,1.07-1.1.86.86,0,0,1,.92,1V42.9h.41V41.13A1.17,1.17,0,0,0,114.37,39.82Z"/><path class="cls-1" d="M117.9,42.41a1.12,1.12,0,1,1,1.16-1.12A1.08,1.08,0,0,1,117.9,42.41Zm1.17-2.57v.59a1.39,1.39,0,0,0-1.21-.61,1.48,1.48,0,1,0,0,3,1.37,1.37,0,0,0,1.19-.59v.39c0,.75-.35,1.11-1.13,1.11a1.82,1.82,0,0,1-1.2-.42l-.21.31a2.16,2.16,0,0,0,1.43.47,1.34,1.34,0,0,0,1.52-1.53V39.84Z"/><polygon class="cls-1" points="122.78 42.9 123.21 42.9 123.21 39.21 124.64 39.21 124.64 38.84 121.35 38.84 121.35 39.21 122.78 39.21 122.78 42.9"/><path class="cls-1" d="M126,40.18a1.06,1.06,0,0,1,1.09,1H124.9A1.05,1.05,0,0,1,126,40.18Zm1.48,1.19A1.45,1.45,0,0,0,126,39.82a1.47,1.47,0,0,0-1.49,1.55,1.61,1.61,0,0,0,2.78,1.06l-.23-.27a1.2,1.2,0,0,1-.94.4,1.13,1.13,0,0,1-1.2-1.06h2.56Z"/><path class="cls-1" d="M129,42.93c.8,0,1.26-.35,1.26-.88,0-1.17-2-.55-2-1.37,0-.29.25-.5.8-.5a1.55,1.55,0,0,1,.9.26l.18-.33a2,2,0,0,0-1.08-.29c-.78,0-1.21.37-1.21.87,0,1.21,2,.58,2,1.38,0,.3-.24.5-.82.5a1.83,1.83,0,0,1-1.08-.35l-.19.33A2.08,2.08,0,0,0,129,42.93Z"/><path class="cls-1" d="M132.37,42.41a.67.67,0,0,1-.45.16.49.49,0,0,1-.53-.56V40.19h.93v-.35h-.93v-.66H131v.66h-.55v.35H131V42a.81.81,0,0,0,.89.89.94.94,0,0,0,.64-.22Z"/><path class="cls-1" d="M133.15,42.9h.41V39.84h-.41Zm.21-3.72a.3.3,0,1,0-.31-.3A.31.31,0,0,0,133.36,39.18Z"/><path class="cls-1" d="M136.15,39.82a1.28,1.28,0,0,0-1.16.59v-.57h-.4V42.9H135V41.29a1,1,0,0,1,1.07-1.1.86.86,0,0,1,.92,1V42.9h.41V41.13A1.17,1.17,0,0,0,136.15,39.82Z"/><path class="cls-1" d="M139.68,42.41a1.12,1.12,0,1,1,1.16-1.12A1.09,1.09,0,0,1,139.68,42.41Zm1.16-2.57v.59a1.36,1.36,0,0,0-1.2-.61,1.48,1.48,0,1,0,0,3,1.37,1.37,0,0,0,1.19-.59v.39c0,.75-.36,1.11-1.13,1.11a1.82,1.82,0,0,1-1.2-.42l-.21.31a2.15,2.15,0,0,0,1.42.47,1.34,1.34,0,0,0,1.53-1.53V39.84Z"/><path class="cls-1" d="M145.53,42.93a2,2,0,0,0,1.49-.6l-.27-.27a1.61,1.61,0,0,1-1.2.49,1.69,1.69,0,1,1,0-3.37,1.61,1.61,0,0,1,1.2.49l.27-.28a2,2,0,0,0-1.48-.59,2.07,2.07,0,1,0,0,4.13Z"/><path class="cls-1" d="M148.79,40.18a1.05,1.05,0,0,1,1.08,1h-2.16A1.05,1.05,0,0,1,148.79,40.18Zm1.48,1.19a1.45,1.45,0,0,0-1.48-1.55,1.47,1.47,0,0,0-1.49,1.55,1.61,1.61,0,0,0,2.77,1.06l-.23-.27a1.18,1.18,0,0,1-.93.4,1.12,1.12,0,0,1-1.2-1.06h2.55S150.27,41.41,150.27,41.37Z"/><path class="cls-1" d="M152.55,39.82a1.28,1.28,0,0,0-1.16.59v-.57H151V42.9h.41V41.29a1,1,0,0,1,1.07-1.1.86.86,0,0,1,.92,1V42.9h.41V41.13A1.17,1.17,0,0,0,152.55,39.82Z"/><path class="cls-1" d="M156.26,42.41a.64.64,0,0,1-.45.16.49.49,0,0,1-.53-.56V40.19h.93v-.35h-.93v-.66h-.41v.66h-.54v.35h.54V42a.81.81,0,0,0,.9.89,1,1,0,0,0,.64-.22Z"/><path class="cls-1" d="M158.12,40.18a1.05,1.05,0,0,1,1.08,1H157A1,1,0,0,1,158.12,40.18Zm1.47,1.19a1.45,1.45,0,0,0-1.47-1.55,1.48,1.48,0,0,0-1.5,1.55,1.61,1.61,0,0,0,2.78,1.06l-.23-.27a1.18,1.18,0,0,1-.93.4A1.12,1.12,0,0,1,157,41.5h2.55Z"/><path class="cls-1" d="M160.71,40.44v-.6h-.39V42.9h.41V41.34a1,1,0,0,1,1-1.12h.1v-.4A1.17,1.17,0,0,0,160.71,40.44Z"/><path class="cls-1" d="M164.94,38.91a.71.71,0,0,1,.46.15l.14-.31a1.05,1.05,0,0,0-.61-.19.85.85,0,0,0-.93.91v.37h-.54v.35H164V42.9h.42V40.19h.92v-.35h-.94v-.36A.5.5,0,0,1,164.94,38.91Z"/><path class="cls-1" d="M167,42.56a1.19,1.19,0,1,1,1.13-1.19A1.12,1.12,0,0,1,167,42.56Zm0,.37a1.56,1.56,0,1,0-1.56-1.56A1.51,1.51,0,0,0,167,42.93Z"/><path class="cls-1" d="M169.65,40.44v-.6h-.4V42.9h.42V41.34c0-.72.38-1.12,1-1.12h.1v-.4A1.16,1.16,0,0,0,169.65,40.44Z"/><polygon class="cls-1" points="176.82 38.84 175.07 41.85 173.31 38.84 172.96 38.84 172.96 42.9 173.37 42.9 173.37 39.66 174.96 42.38 175.16 42.38 176.76 39.65 176.76 42.9 177.17 42.9 177.17 38.84 176.82 38.84"/><path class="cls-1" d="M178.29,42.9h.41V39.84h-.41Zm.21-3.72a.3.3,0,1,0-.3-.3A.3.3,0,0,0,178.5,39.18Z"/><path class="cls-1" d="M181.29,39.82a1.28,1.28,0,0,0-1.16.59v-.57h-.39V42.9h.41V41.29a1,1,0,0,1,1.07-1.1c.58,0,.91.33.91,1V42.9h.41V41.13A1.17,1.17,0,0,0,181.29,39.82Z"/><path class="cls-1" d="M184.74,40.18a1.06,1.06,0,0,1,1.09,1h-2.17A1.06,1.06,0,0,1,184.74,40.18Zm1.48,1.19a1.45,1.45,0,0,0-1.48-1.55,1.47,1.47,0,0,0-1.49,1.55A1.61,1.61,0,0,0,186,42.43l-.23-.27a1.18,1.18,0,0,1-.93.4,1.14,1.14,0,0,1-1.21-1.06h2.56Z"/><path class="cls-1" d="M187.34,40.44v-.6H187V42.9h.41V41.34a1,1,0,0,1,1-1.12h.1v-.4A1.16,1.16,0,0,0,187.34,40.44Z"/><path class="cls-1" d="M190,42.6c-.49,0-.77-.22-.77-.57s.19-.55.78-.55h1V42A1,1,0,0,1,190,42.6Zm.14-2.78a2,2,0,0,0-1.24.41l.19.31a1.55,1.55,0,0,1,1-.36c.57,0,.87.29.87.81v.18h-1c-.88,0-1.18.4-1.18.87s.42.89,1.11.89a1.14,1.14,0,0,0,1-.51v.48h.4V41A1.09,1.09,0,0,0,190.17,39.82Z"/><rect class="cls-1" x="192.41" y="38.59" width="0.41" height="4.3"/><path class="cls-1" d="M196.18,42.6c-.48,0-.77-.22-.77-.57s.19-.55.79-.55h1V42A1,1,0,0,1,196.18,42.6Zm.15-2.78a1.93,1.93,0,0,0-1.24.41l.18.31a1.56,1.56,0,0,1,1-.36.75.75,0,0,1,.86.81v.18h-1c-.87,0-1.17.4-1.17.87s.42.89,1.11.89a1.17,1.17,0,0,0,1-.51v.48h.39V41A1.08,1.08,0,0,0,196.33,39.82Z"/><path class="cls-1" d="M200.12,39.82a1.28,1.28,0,0,0-1.16.59v-.57h-.39V42.9H199V41.29a1,1,0,0,1,1.07-1.1c.58,0,.91.33.91,1V42.9h.42V41.13A1.17,1.17,0,0,0,200.12,39.82Z"/><path class="cls-1" d="M203.64,42.56a1.19,1.19,0,1,1,1.13-1.19A1.12,1.12,0,0,1,203.64,42.56Zm1.12-4v1.83a1.33,1.33,0,0,0-1.16-.6,1.56,1.56,0,0,0,0,3.11,1.33,1.33,0,0,0,1.18-.64v.61h.4V38.59Z"/><path class="cls-1" d="M209.46,42.93a2,2,0,0,0,1.49-.6l-.27-.27a1.61,1.61,0,0,1-1.2.49,1.69,1.69,0,1,1,0-3.37,1.61,1.61,0,0,1,1.2.49l.27-.28a2,2,0,0,0-1.48-.59,2.07,2.07,0,1,0,0,4.13Z"/><path class="cls-1" d="M212.78,42.56a1.19,1.19,0,1,1,1.13-1.19A1.12,1.12,0,0,1,212.78,42.56Zm0,.37a1.56,1.56,0,1,0-1.55-1.56A1.51,1.51,0,0,0,212.78,42.93Z"/><path class="cls-1" d="M216,42.6c-.49,0-.77-.22-.77-.57s.19-.55.78-.55h1V42A1,1,0,0,1,216,42.6Zm.15-2.78a2,2,0,0,0-1.25.41l.19.31a1.55,1.55,0,0,1,1-.36c.57,0,.87.29.87.81v.18h-1c-.88,0-1.18.4-1.18.87s.43.89,1.12.89a1.17,1.17,0,0,0,1-.51v.48h.39V41A1.09,1.09,0,0,0,216.11,39.82Z"/><rect class="cls-1" x="218.34" y="38.59" width="0.41" height="4.3"/><path d="M24.46,46.7c-1.67-.05-3.35-.06-5-.17a44.9,44.9,0,0,1-10-1.72A.71.71,0,0,1,9,44.5,77,77,0,0,1,3.86,34.12,64.29,64.29,0,0,1,1,25.54a33.41,33.41,0,0,1-1-6C0,18.52,0,17.46,0,16.4A.66.66,0,0,1,.19,16a46.78,46.78,0,0,1,4.49-4.74A58.24,58.24,0,0,1,12,5.53,39.58,39.58,0,0,1,21.34.8a21.18,21.18,0,0,1,3-.78,3.23,3.23,0,0,1,1.28.2,33.34,33.34,0,0,1,8.4,3.53,56.34,56.34,0,0,1,9.06,6.51A49,49,0,0,1,48.72,16a.92.92,0,0,1,.2.51,25.93,25.93,0,0,1-.64,7.35,57.21,57.21,0,0,1-2.85,9.4,78.24,78.24,0,0,1-4.56,9.67c-.3.53-.6,1.07-.92,1.59a.76.76,0,0,1-.36.28,45,45,0,0,1-6.18,1.33A65.29,65.29,0,0,1,24.46,46.7ZM24.2,36.32a9.53,9.53,0,0,1-3.64-.72,12.06,12.06,0,0,0-5.08-.74,8.76,8.76,0,0,0-1.83.31c-.36.1-.59.09-.78-.25a1.6,1.6,0,0,0-.21-.26c-.2-.26-.41-.51-.65-.81.37-.16.68-.32,1-.43a10.82,10.82,0,0,1,5.89-.19c1.1.22,2.17.63,3.25,1a7.06,7.06,0,0,0,2,.27v-.7A11.47,11.47,0,0,1,20.47,33a15.16,15.16,0,0,0-2.29-.61,10.88,10.88,0,0,0-3.69,0,6.81,6.81,0,0,0-2.73,1.1c-.26-.38-.5-.76-.76-1.12-.11-.17-.07-.26.07-.38a6.11,6.11,0,0,1,2.75-1.34c.9-.17,1.83-.23,2.68-.33l.12-.69-1,.56-.69-1.36c.59-.33,1.13-.66,1.69-.94a1.23,1.23,0,0,0,.83-1,3.11,3.11,0,0,1,.11-.41c.17-.59.34-1.19.51-1.82H14.26c-.07,0-.16.14-.18.22a3.43,3.43,0,0,0,0,.56H14a2.66,2.66,0,0,1-.09-.46c0-.28-.13-.35-.39-.34H8.65l-.32,0A15.91,15.91,0,0,0,24.2,40.68V39l-.1,0a10.86,10.86,0,0,1-3.61-.74,9.22,9.22,0,0,0-3.94-.75A1.94,1.94,0,0,1,15,37c-.38-.36-.79-.69-1.23-1.08l.37-.09a12.42,12.42,0,0,1,4.08,0,17.28,17.28,0,0,1,3.67,1,5.51,5.51,0,0,0,2.32.35Zm.53.84a5.14,5.14,0,0,0,2.15-.39A15.1,15.1,0,0,1,33,35.63c.62,0,1.23.14,1.91.22l-.24.27-1.46,1.22a.75.75,0,0,1-.61.19,9.54,9.54,0,0,0-4,.6,21.06,21.06,0,0,1-2.35.68c-.51.13-1,.17-1.55.25v1.67a15.89,15.89,0,0,0,11.67-5.52,15.6,15.6,0,0,0,4-10.59H35.09l-.21.72a.89.89,0,0,1-.11-.43c0-.27-.12-.31-.36-.31H31.2l-.36,0a19,19,0,0,1,.53,1.91,1.7,1.7,0,0,0,1.1,1.35c.55.26,1.06.6,1.6.91l-.69,1.36-1.1-.64c-.05.31.28.55.06.83a7.37,7.37,0,0,1,5.44,1.79l-.84,1.26a12.94,12.94,0,0,0-1.68-.75,10.57,10.57,0,0,0-6.44.13c-.91.27-1.82.56-2.75.81a11.5,11.5,0,0,1-1.33.18v.67a8.1,8.1,0,0,0,2.77-.57,13.7,13.7,0,0,1,7-.76,6.05,6.05,0,0,1,2.11.77c-.37.45-.72.89-1.09,1.32,0,0-.18,0-.26,0-.24,0-.47-.16-.7-.2a12.42,12.42,0,0,0-5.93.38c-.93.31-1.89.57-2.84.81a7.7,7.7,0,0,1-1.1.13Zm-9.4-19.6L10.83,16a16,16,0,0,0-2.54,8.26h5.45c0-.33-.05-.64-.07-.94a11.88,11.88,0,0,1,.48-3.8.75.75,0,0,0-.06-.7.24.24,0,0,1,0-.2q.27-.51.54-1C14.87,17.63,15.16,17.92,15.33,17.56Zm18.18,0c.2.22.24.71.75.4L34.84,19c-.29.15-.26.36-.21.63a26,26,0,0,1,.45,2.64,16.48,16.48,0,0,1,0,2h5.22C40.48,22,39.06,17.4,37.8,16ZM20,18.06l1.34-4.7a1.65,1.65,0,0,0-.2-.07,19.76,19.76,0,0,1-5.61-1.74.46.46,0,0,0-.38,0,8.77,8.77,0,0,0-.76.56,16.1,16.1,0,0,0-3.29,3.55l.16.1a26.91,26.91,0,0,0,4.2,1.41.35.35,0,0,0,.27-.11c.31-.33.59-.69.92-1a5.4,5.4,0,0,1,2.75-1.56,5,5,0,0,1,.67,0,9.3,9.3,0,0,0-2.81,3.16Zm17.64-2.28c0-.09,0-.12,0-.13a15.94,15.94,0,0,0-4.08-4.11.34.34,0,0,0-.31,0,16.34,16.34,0,0,1-5.25,1.75c-.25,0-.29.13-.23.37.28.93.54,1.86.81,2.79.14.52.29,1.05.45,1.61l3-.51a4.35,4.35,0,0,0-1.19-1.31.53.53,0,0,0-.63,0c-.05,0-.16.05-.18,0-.22-.21-.42-.43-.61-.65a.14.14,0,0,1,0-.14c.18-.32.37-.64.56-1l.15.07a11.58,11.58,0,0,1,3,2.44.41.41,0,0,0,.49.16c.48-.16,1-.28,1.46-.44ZM27.53,13.05a15.57,15.57,0,0,0,5.52-1.79,16,16,0,0,0-17.46,0l.7.32A19.5,19.5,0,0,0,21.12,13c.17,0,.28,0,.34-.2.3-1.09.61-2.17.91-3.26.06-.2.14-.28.36-.28,1.11,0,2.23,0,3.34,0a.42.42,0,0,1,.5.38C26.87,10.77,27.2,11.89,27.53,13.05Zm6.16-2,7.82,4.56,0-.05-5.36-5.2,1.35-1.62s0-.06-.06-.07Q33,5.61,28.54,2.51a.3.3,0,0,0-.43,0L26.4,4l-.48.43L36.19,8.82ZM12.55,8.82,22.82,4.46c-.11-.1-.18-.17-.26-.23-.62-.54-1.26-1.07-1.87-1.63a.38.38,0,0,0-.57,0c-2.2,1.54-4.41,3.06-6.62,4.58l-2.31,1.6,1.37,1.64L7.13,15.65l0,0,7.9-4.6Zm1.59,15.42s.06,0,.08,0H18a.28.28,0,0,0,.2-.17c.23-.75.44-1.5.66-2.25a.28.28,0,0,0-.14-.36c-.72-.41-1.4-.87-2.14-1.23a1.05,1.05,0,0,0-1.58.41A11,11,0,0,0,14.14,24.24Zm20.56,0c-.09-.49-.17-.93-.26-1.37a8.15,8.15,0,0,0-.83-2.48.62.62,0,0,0-1-.23l-2.4,1.4c-.19.11-.24.21-.17.42.2.66.39,1.32.57,2a.31.31,0,0,0,.36.29c1.12,0,2.25,0,3.37,0ZM17,30.41a12.81,12.81,0,0,1,3.7.68c.61.21,1.21.42,1.83.57s1.13.18,1.72.27V29.18c-.68.06-1.34.1-2,.18L17.3,30C17.06,30,16.94,30.13,17,30.41ZM24.73,32c.73-.17,1.43-.27,2.09-.48a16.81,16.81,0,0,1,4.36-1c.26,0,.52,0,.78-.07l0-.12c-.11-.08-.22-.21-.34-.23L26,29.28c-.4-.05-.82-.06-1.25-.09ZM25,20.84c.66.4,1.27.77,1.89,1.13a.28.28,0,0,0,.25,0c.71-.39,1.41-.8,2.14-1.21l-.61-2.13ZM20.3,18.6c-.18.62-.34,1.21-.52,1.79-.06.21,0,.31.19.41l2,1.09a.48.48,0,0,0,.37,0c.3-.15.58-.34.87-.51l.85-.53Zm3.77-3.3-2.36-1.64-1.17,4.1Zm.84,0,3.45,2.4-1.15-4Zm4.76,5.23c.92-.54,1.8-1.05,2.67-1.58.27-.16.17-1-.13-1.13a.25.25,0,0,0-.15,0c-.94.16-1.88.32-2.82.5a.25.25,0,0,0-.13.23C29.28,19.18,29.47,19.83,29.67,20.53Zm-4.93,8.13,6,.7,0,0-6-2.23Zm-.56-1.55-6,2.22v0l6-.69Zm-4.9-6.71.58-2.06-2.65-.42a.24.24,0,0,0-.17,0,.89.89,0,0,0,0,1.2C17.79,19.56,18.51,20,19.28,20.4Zm22.21,15-2.12-1.54c-.09.13-.17.25-.26.36s-.18.31,0,.51.62.74.92,1.12a.61.61,0,0,1-.34-.06l-1.11-.44c-.16-.07-.28-.07-.38.11a2.89,2.89,0,0,1-.31.43L40,37.37l.27-.36-1.53-1.13,0-.06,1.83.73.28-.39-1.25-1.51,0,0,1.53,1.11ZM22.16,44.76l.44-2.56-.43-.1a.32.32,0,0,0-.45.21c-.13.34-.29.67-.45,1-.05.12-.12.23-.18.35-.1-.53-.14-1-.19-1.54,0-.09,0-.23-.11-.25a6.45,6.45,0,0,0-.66-.12l-.44,2.53c.42.14.42.14.5-.23,0-.19.07-.38.1-.57l.18-1h.06l.16,2c.45.12.45.12.63-.27l.21-.47c.14-.32.29-.64.44-1l.06,0-.31,1.87Zm5.89-26.6v-.08l-3.31-2.3v2.53Zm-3.89-2.34L20.9,18.09l0,.08,3.24.14Zm.36,27.62c.43-.46.39-1-.1-1.14a12.57,12.57,0,0,0-1.67-.13c0,.87,0,1.66,0,2.44,0,.17.08.21.23.2h1.1c.48,0,.7-.15.83-.53S24.92,43.75,24.52,43.44ZM31.39,29c-.07-.07-.08-.09-.1-.1l-4.5-2.66a.34.34,0,0,0-.23-.05c-.43.15-.86.32-1.37.51ZM5.58,32l.81-1.14.09.1a.65.65,0,0,0,.85.2.6.6,0,0,0,.38-.77c-.12-.49-.3-1-.46-1.46l-2.47.88.17.46L5.78,30c.15-.06.25,0,.26.13a.89.89,0,0,1-.06.46,1.74,1.74,0,0,1-.39.54C5.31,31.43,5.38,31.7,5.58,32Zm38.77-5.22-1.23.59A1.65,1.65,0,0,0,43,27,.71.71,0,0,0,41.82,27a5.44,5.44,0,0,0-.37,1.7l2.56.44.07-.48-.42-.08a1.76,1.76,0,0,0-.39-.06c-.3,0-.29-.19-.19-.37a.83.83,0,0,1,.28-.28,6.54,6.54,0,0,1,.6-.28C44.36,27.39,44.39,27.34,44.35,26.82ZM27.86,44.55l.47-.12-.2-1a.56.56,0,0,1,.73.11l.4.38c.34.32.37.33.85.09l-1-.9a2.62,2.62,0,0,0,.21-.17.66.66,0,0,0,.17-.78.58.58,0,0,0-.63-.43c-.52.07-1,.19-1.57.3ZM5.18,26.27l0-.06c.42-.31.84-.65,1.28-.93a.52.52,0,0,0,.26-.72l-2.57.2,0,.45,1.64-.12a8.37,8.37,0,0,1-1.27,1,.54.54,0,0,0-.23.72l2.54-.18c0-.46,0-.46-.35-.43ZM41,32.86v-.07a13.39,13.39,0,0,1,1.53-.21.56.56,0,0,0,.59-.54L40.71,31l-.16.42,1.59.72a3,3,0,0,1-.33.08c-.45.06-.91.15-1.36.17s-.48.19-.54.51l2.35,1,.18-.41ZM13.49,41.67l1.5-2.1-.37-.26-1,1.35a10.27,10.27,0,0,1,0-1.67.49.49,0,0,0-.39-.59l-1.5,2.09.37.27,1-1.41c0,.16,0,.24,0,.32,0,.44,0,.89-.1,1.34A.53.53,0,0,0,13.49,41.67ZM7.9,33.93l-.47-1-.35.18.25.6c-.18,0-.35.08-.45,0a.78.78,0,0,1,0-1.38,1.2,1.2,0,0,1,.58-.23,1.09,1.09,0,0,1,.65.23.52.52,0,0,1,.17.69c-.2.3,0,.45.16.65a1,1,0,0,0,.31-1,1.25,1.25,0,0,0-1.51-1A1.32,1.32,0,0,0,6,33.2a1.66,1.66,0,0,0,.76,1.07.34.34,0,0,0,.28,0C7.35,34.19,7.62,34.06,7.9,33.93Zm.19,2.72c.23.29.44.54.64.8l.15.15a1.06,1.06,0,0,0,1.4.07c.65-.43,1-1,.7-1.49A10.3,10.3,0,0,0,10.14,35Zm15.6-9.88V26.7l-1.21-.44a.43.43,0,0,0-.3.07L19.34,28l-1.56.91,0,.05ZM30.36,41.2l1.08,2.38,1-.44A.92.92,0,0,0,33,42a2.8,2.8,0,0,0-.51-1,.84.84,0,0,0-1-.24ZM4.84,27.85l.74-.14L5.81,29l.38-.08V28.8l-.12-.66c-.09-.54-.09-.54.52-.58l.27,1.37.38-.08L6.92,27l-2.57.44.33,1.94.4-.07Zm-.3-3.56.14-1.48.74.08c0,.36,0,.69-.07,1s.09.36.37.29l.12-1.28.61.05-.11,1.39.42,0,.13-1.92-2.6-.19-.13,2Zm37.79,5-.39,1.25-.25-.07c-.28,0-.35-.17-.25-.43s.2-.68.31-1l-.39-.13-.54,1.85,2.51.74.55-1.89-.39-.12c-.12.41-.24.81-.37,1.21,0,.07-.14.16-.19.15a4.23,4.23,0,0,1-.58-.17l.36-1.25ZM15.1,41.76c0,.05,0,.08,0,.12a.84.84,0,0,0,.33.89,1.18,1.18,0,0,0,1.23.25,1,1,0,0,0,.42-.55.69.69,0,0,0-.3-.77c-.19-.17-.4-.32-.58-.51s-.1-.37.12-.41.61.14.63.37.24.34.46.42a.79.79,0,0,0,.05-.13c.07-.51-.17-.81-.8-1a.71.71,0,0,0-.73,1.22c.19.17.4.32.57.5a.28.28,0,0,1-.15.49c-.33.09-.76-.15-.76-.47S15.34,41.8,15.1,41.76Zm10.69,1.43,0-.62,1.41-.11-.05-.41-1.9.16.21,2.6,1.95-.16,0-.39c-.42,0-.81.07-1.21.08-.08,0-.23-.07-.24-.13a5.2,5.2,0,0,1-.05-.59l1-.09c.37,0,.37,0,.27-.42Zm10.06-1.93c-.65-.52-1.3-1-1.94-1.56a.38.38,0,0,0-.51,0c-.2.1-.16.26-.14.42s0,.22.05.33c.11.7.21,1.4.32,2.11.31-.11.55-.22.4-.6-.07-.18,0-.31.19-.4s.46-.26.7-.4C35.21,41.33,35.46,41.79,35.85,41.26Zm3.35-2.95c-.79-.37-1.56-.71-2.32-1.08-.21-.11-.29,0-.42.11a.28.28,0,0,0-.09.39c.19.45.37.9.55,1.35l.44,1.05c.12-.23.45-.27.29-.54s-.1-.59.21-.8a1,1,0,0,0,.24-.23.26.26,0,0,1,.38-.05C38.89,38.71,38.89,38.71,39.2,38.31ZM24.74,20.41,28,18.46l-3.24.16ZM11.53,40.27c.32-.82.62-1.62.94-2.41.09-.22-.06-.29-.16-.41s-.22-.12-.37-.05l-1.63.79-.69.34.38.35c.7-.34.49-.35,1,.11a1.24,1.24,0,0,0,.21.19.27.27,0,0,1,.08.37C11.12,40,11.13,40,11.53,40.27Zm32.9-13.54c0-.26.13-.53-.23-.61a.41.41,0,0,1-.36-.55,1.22,1.22,0,0,0,0-.33.41.41,0,0,1,.32-.47c.34-.1.38-.22.25-.59h-.08c-.78.29-1.55.58-2.31.88-.1,0-.16.21-.18.33a.26.26,0,0,0,.18.36c.49.19,1,.4,1.47.6Zm-25,14.78c-.18.57-.35,1.12-.53,1.65a.46.46,0,0,1-.67.33.48.48,0,0,1-.33-.65c.16-.55.33-1.09.49-1.65l-.49-.13c-.18.63-.36,1.25-.52,1.86a.65.65,0,0,0,.32.77,2.7,2.7,0,0,0,.8.27.67.67,0,0,0,.8-.46c.21-.59.4-1.2.6-1.81ZM17.85,27.16l2.81-1.58-2.13-.79ZM21,18.47l3.16,1.91c0-.56,0-1,0-1.53,0-.2-.07-.25-.27-.26Zm2.19,5.7c-.55-.33-1.05-.6-1.53-.92a.59.59,0,0,0-.75,0c-.52.35-1.07.65-1.6,1,1.2.05,2.38.06,3.56.05C23,24.29,23.06,24.22,23.21,24.17ZM31,27.07l-.65-2.26-2,.75ZM29.64,24.3v-.07l-1.8-1.08a.26.26,0,0,0-.19,0l-1.78,1a1.39,1.39,0,0,0,.37.12ZM22.73,10.09,22,12.61l.06,0,2-1.54ZM34.07,39.41c.85.33,1.87.39,2.3,1.43l.42-.33c-.13-.17-.24-.33-.37-.47A1.26,1.26,0,0,1,36,39.2c0-.42-.1-.84-.15-1.29-.28.17-.52.29-.39.67a4.89,4.89,0,0,1,.13.86c-.26-.1-.49-.15-.7-.25A.56.56,0,0,0,34.07,39.41ZM26.84,12.6l.05,0-.7-2.47-1.31,1ZM44.46,23.78,44.33,22c-.42,0-.43,0-.4.35s0,.62.08,1l-2.18.2.07.48ZM18.75,24l2.08-1.26-1.48-.87Zm7.72-1.7-1.73-1v2Zm-1.72-10.7v1.65l1.94-.09,0-.07Zm-.61,1.65V11.68l-1.85,1.41,0,.08ZM29.59,22l-1.38.81L30.14,24Zm-7,.27,1.57.89V21.33ZM7.2,35.35l2.28-1.29-.26-.43L7,34.92Zm32.26-1.78,2.27,1.27.25-.43-2.27-1.27Zm-14.71-20v1.24l1.94-1.35Zm-2.38-.12,0,0,1.81,1.26V13.58Zm-2.8,11.15v0l1.5.56c.07,0,.16.05.2,0,.36-.18.7-.38,1-.57l0-.05Zm5.17.46v1.32l1.37-.51Zm4.65-.41v0H26.74c.38.22.68.41,1,.57a.49.49,0,0,0,.29,0C28.48,25,28.93,24.83,29.39,24.66Zm-5.21.5-1.26.74,1.26.46Zm1.54-15.3h-1v.74Zm-1.58,0h-.91l.91.68Z"/><path class="cls-19" d="M24.2,36.32v.84a5.51,5.51,0,0,1-2.32-.35,17.28,17.28,0,0,0-3.67-1,12.42,12.42,0,0,0-4.08,0l-.37.09c.44.39.85.72,1.23,1.08a1.94,1.94,0,0,0,1.56.55,9.22,9.22,0,0,1,3.94.75A10.86,10.86,0,0,0,24.1,39l.1,0v1.64A15.91,15.91,0,0,1,8.33,24.62l.32,0h4.82c.26,0,.39.06.39.34a2.66,2.66,0,0,0,.09.46H14a3.43,3.43,0,0,1,0-.56c0-.08.11-.22.18-.22h3.81c-.17.63-.34,1.23-.51,1.82a3.11,3.11,0,0,0-.11.41,1.23,1.23,0,0,1-.83,1c-.56.28-1.1.61-1.69.94l.69,1.36,1-.56-.12.69c-.85.1-1.78.16-2.68.33A6.11,6.11,0,0,0,11.07,32c-.14.12-.18.21-.07.38.26.36.5.74.76,1.12a6.81,6.81,0,0,1,2.73-1.1,10.88,10.88,0,0,1,3.69,0,15.16,15.16,0,0,1,2.29.61,11.47,11.47,0,0,0,3.72.76v.7a7.06,7.06,0,0,1-2-.27c-1.08-.32-2.15-.73-3.25-1a10.82,10.82,0,0,0-5.89.19c-.32.11-.63.27-1,.43.24.3.45.55.65.81a1.6,1.6,0,0,1,.21.26c.19.34.42.35.78.25a8.76,8.76,0,0,1,1.83-.31,12.06,12.06,0,0,1,5.08.74A9.53,9.53,0,0,0,24.2,36.32Z"/><path class="cls-19" d="M24.73,37.16v-.81a7.7,7.7,0,0,0,1.1-.13c1-.24,1.91-.5,2.84-.81A12.42,12.42,0,0,1,34.6,35c.23,0,.46.15.7.2.08,0,.22,0,.26,0,.37-.43.72-.87,1.09-1.32a6.05,6.05,0,0,0-2.11-.77,13.7,13.7,0,0,0-7,.76,8.1,8.1,0,0,1-2.77.57v-.67a11.5,11.5,0,0,0,1.33-.18c.93-.25,1.84-.54,2.75-.81a10.57,10.57,0,0,1,6.44-.13,12.94,12.94,0,0,1,1.68.75l.84-1.26a7.37,7.37,0,0,0-5.44-1.79c.22-.28-.11-.52-.06-.83l1.1.64.69-1.36c-.54-.31-1-.65-1.6-.91a1.7,1.7,0,0,1-1.1-1.35,19,19,0,0,0-.53-1.91l.36,0h3.21c.24,0,.37,0,.36.31a.89.89,0,0,0,.11.43l.21-.72h5.27a15.6,15.6,0,0,1-4,10.59,15.89,15.89,0,0,1-11.67,5.52V39.06c.52-.08,1-.12,1.55-.25a21.06,21.06,0,0,0,2.35-.68,9.54,9.54,0,0,1,4-.6.75.75,0,0,0,.61-.19l1.46-1.22.24-.27c-.68-.08-1.29-.19-1.91-.22a15.1,15.1,0,0,0-6.15,1.14A5.14,5.14,0,0,1,24.73,37.16Z"/><path class="cls-19" d="M15.33,17.56c-.17.36-.46.07-.73.08q-.27.48-.54,1a.24.24,0,0,0,0,.2.75.75,0,0,1,.06.7,11.88,11.88,0,0,0-.48,3.8c0,.3.05.61.07.94H8.29A16,16,0,0,1,10.83,16Z"/><path class="cls-19" d="M33.51,17.53,37.8,16c1.26,1.36,2.68,5.95,2.52,8.23H35.1a16.48,16.48,0,0,0,0-2,26,26,0,0,0-.45-2.64c-.05-.27-.08-.48.21-.63l-.58-1.08C33.75,18.24,33.71,17.75,33.51,17.53Z"/><path class="cls-19" d="M20,18.06l-2.74-.43A9.3,9.3,0,0,1,20,14.47a5,5,0,0,0-.67,0,5.4,5.4,0,0,0-2.75,1.56c-.33.33-.61.69-.92,1a.35.35,0,0,1-.27.11,26.91,26.91,0,0,1-4.2-1.41l-.16-.1a16.1,16.1,0,0,1,3.29-3.55,8.77,8.77,0,0,1,.76-.56.46.46,0,0,1,.38,0,19.76,19.76,0,0,0,5.61,1.74,1.65,1.65,0,0,1,.2.07Z"/><path class="cls-19" d="M37.59,15.78l-2.58,1c-.48.16-1,.28-1.46.44a.41.41,0,0,1-.49-.16,11.58,11.58,0,0,0-3-2.44L30,14.5c-.19.32-.38.64-.56,1a.14.14,0,0,0,0,.14c.19.22.39.44.61.65,0,0,.13,0,.18,0a.53.53,0,0,1,.63,0A4.35,4.35,0,0,1,32,17.55l-3,.51c-.16-.56-.31-1.09-.45-1.61-.27-.93-.53-1.86-.81-2.79-.06-.24,0-.33.23-.37a16.34,16.34,0,0,0,5.25-1.75.34.34,0,0,1,.31,0,15.94,15.94,0,0,1,4.08,4.11S37.58,15.69,37.59,15.78Z"/><path class="cls-19" d="M27.53,13.05c-.33-1.16-.66-2.28-1-3.41a.42.42,0,0,0-.5-.38c-1.11,0-2.23,0-3.34,0-.22,0-.3.08-.36.28-.3,1.09-.61,2.17-.91,3.26-.06.21-.17.23-.34.2a19.5,19.5,0,0,1-4.83-1.4l-.7-.32a16,16,0,0,1,17.46,0A15.57,15.57,0,0,1,27.53,13.05Z"/><path class="cls-19" d="M33.69,11.08l2.5-2.26L25.92,4.46,26.4,4l1.71-1.48a.3.3,0,0,1,.43,0Q33,5.62,37.47,8.7s0,0,.06.07l-1.35,1.62,5.36,5.2,0,.05Z"/><path class="cls-19" d="M12.55,8.82l2.51,2.26-7.9,4.6,0,0,5.43-5.26L11.19,8.75l2.31-1.6c2.21-1.52,4.42-3,6.62-4.58a.38.38,0,0,1,.57,0c.61.56,1.25,1.09,1.87,1.63.08.06.15.13.26.23Z"/><path class="cls-19" d="M14.14,24.24A11,11,0,0,1,15,20.69a1.05,1.05,0,0,1,1.58-.41c.74.36,1.42.82,2.14,1.23a.28.28,0,0,1,.14.36c-.22.75-.43,1.5-.66,2.25a.28.28,0,0,1-.2.17H14.22S14.18,24.27,14.14,24.24Z"/><path class="cls-19" d="M34.7,24.28l-.31,0c-1.12,0-2.25,0-3.37,0a.31.31,0,0,1-.36-.29c-.18-.67-.37-1.33-.57-2-.07-.21,0-.31.17-.42l2.4-1.4a.62.62,0,0,1,1,.23,8.15,8.15,0,0,1,.83,2.48C34.53,23.35,34.61,23.79,34.7,24.28Z"/><path class="cls-19" d="M17,30.41c0-.28.11-.37.35-.4l4.9-.65c.66-.08,1.32-.12,2-.18v2.75c-.59-.09-1.16-.13-1.72-.27s-1.22-.36-1.83-.57A12.81,12.81,0,0,0,17,30.41Z"/><path class="cls-19" d="M24.73,32V29.19c.43,0,.85,0,1.25.09l5.68.74c.12,0,.23.15.34.23l0,.12c-.26,0-.52.06-.78.07a16.81,16.81,0,0,0-4.36,1C26.16,31.69,25.46,31.79,24.73,32Z"/><path class="cls-19" d="M25,20.84l3.67-2.21.61,2.13c-.73.41-1.43.82-2.14,1.21a.28.28,0,0,1-.25,0C26.22,21.61,25.61,21.24,25,20.84Z"/><path class="cls-19" d="M20.3,18.6,24,20.84l-.85.53c-.29.17-.57.36-.87.51a.48.48,0,0,1-.37,0L20,20.8c-.18-.1-.25-.2-.19-.41C20,19.81,20.12,19.22,20.3,18.6Z"/><path class="cls-19" d="M24.07,15.3l-3.53,2.46,1.17-4.1Z"/><path class="cls-19" d="M24.91,15.3l2.3-1.61,1.15,4Z"/><path class="cls-19" d="M29.67,20.53c-.2-.7-.39-1.35-.56-2a.25.25,0,0,1,.13-.23c.94-.18,1.88-.34,2.82-.5a.25.25,0,0,1,.15,0c.3.12.4,1,.13,1.13C31.47,19.48,30.59,20,29.67,20.53Z"/><path class="cls-19" d="M24.74,28.66V27.09l6,2.23,0,0Z"/><path class="cls-19" d="M24.18,27.11v1.55l-6,.69v0Z"/><path class="cls-19" d="M19.28,20.4c-.77-.44-1.49-.84-2.2-1.26a.89.89,0,0,1,0-1.2.24.24,0,0,1,.17,0l2.65.42Z"/><path class="cls-19" d="M41.49,35.35l-.28.36L39.68,34.6l0,0,1.25,1.51-.28.39-1.83-.73,0,.06L40.27,37l-.27.36-2.11-1.53a2.89,2.89,0,0,0,.31-.43c.1-.18.22-.18.38-.11l1.11.44a.61.61,0,0,0,.34.06c-.3-.38-.59-.77-.92-1.12s-.17-.33,0-.51.17-.23.26-.36Z"/><path class="cls-19" d="M22.16,44.76l-.44-.09L22,42.8l-.06,0c-.15.32-.3.64-.44,1l-.21.47c-.18.39-.18.39-.63.27l-.16-2h-.06l-.18,1c0,.19-.06.38-.1.57-.08.37-.08.37-.5.23l.44-2.53a6.45,6.45,0,0,1,.66.12c.06,0,.1.16.11.25.05.51.09,1,.19,1.54.06-.12.13-.23.18-.35.16-.34.32-.67.45-1a.32.32,0,0,1,.45-.21l.43.1Z"/><path class="cls-19" d="M28.05,18.16l-3.3.15V15.78l3.31,2.3Z"/><path class="cls-19" d="M24.16,15.82v2.49l-3.24-.14,0-.08Z"/><path class="cls-19" d="M24.52,43.44c.4.31.49.52.38.85s-.35.53-.83.53H23c-.15,0-.23,0-.23-.2,0-.78,0-1.57,0-2.44a12.57,12.57,0,0,1,1.67.13C24.91,42.39,25,43,24.52,43.44Zm-.78,1h0a1.27,1.27,0,0,0,.44-.06.39.39,0,0,0,.22-.28c0-.1-.07-.31-.15-.32a6.54,6.54,0,0,0-.89-.09s-.08.06-.1.1c-.15.41,0,.64.45.64Zm-.45-1.79v.63a3.6,3.6,0,0,0,.74,0c.12,0,.21-.2.32-.3-.11-.11-.2-.27-.33-.3A3.51,3.51,0,0,0,23.29,42.62Z"/><path class="cls-19" d="M31.39,29l-6.2-2.3c.51-.19.94-.36,1.37-.51a.34.34,0,0,1,.23.05l4.5,2.66S31.32,29,31.39,29Z"/><path class="cls-19" d="M5.58,32c-.2-.34-.27-.61,0-.89A1.74,1.74,0,0,0,6,30.61.89.89,0,0,0,6,30.15C6,30,5.93,30,5.78,30L5,30.31l-.17-.46L7.25,29c.16.5.34,1,.46,1.46a.6.6,0,0,1-.38.77.65.65,0,0,1-.85-.2l-.09-.1Zm.79-2.16a4.65,4.65,0,0,0,.28.7.42.42,0,0,0,.34.18c.1,0,.28-.19.27-.26A2.37,2.37,0,0,0,7,29.67c0-.05-.39.09-.59.15C6.4,29.82,6.4,29.83,6.37,29.88Z"/><path class="cls-19" d="M44.35,26.82c0,.52,0,.57-.39.74a6.54,6.54,0,0,0-.6.28.83.83,0,0,0-.28.28c-.1.18-.11.35.19.37a1.76,1.76,0,0,1,.39.06l.42.08-.07.48-2.56-.44a5.44,5.44,0,0,1,.37-1.7A.71.71,0,0,1,43,27a1.65,1.65,0,0,1,.12.38ZM41.93,28.2c.62.26.69.23.78-.37a1,1,0,0,0,0-.24.31.31,0,0,0-.28-.37.32.32,0,0,0-.4.28C42,27.72,42,28,41.93,28.2Z"/><path class="cls-19" d="M27.86,44.55,27.28,42c.54-.11,1-.23,1.57-.3a.58.58,0,0,1,.63.43.66.66,0,0,1-.17.78,2.62,2.62,0,0,1-.21.17l1,.9c-.48.24-.51.23-.85-.09l-.4-.38a.56.56,0,0,0-.73-.11l.2,1Zm.05-2.28c0,.68.06.73.66.59l.2-.06a.35.35,0,0,0,.24-.44c-.05-.21-.21-.26-.4-.23S28.15,42.22,27.91,42.27Z"/><path class="cls-19" d="M5.18,26.27l1.31-.08c.39,0,.4,0,.35.43L4.3,26.8a.54.54,0,0,1,.23-.72,8.37,8.37,0,0,0,1.27-1l-1.64.12,0-.45,2.57-.2a.52.52,0,0,1-.26.72c-.44.28-.86.62-1.28.93Z"/><path class="cls-19" d="M41,32.86l1.47.67-.18.41-2.35-1c.06-.32.18-.5.54-.51s.91-.11,1.36-.17a3,3,0,0,0,.33-.08l-1.59-.72.16-.42L43.08,32a.56.56,0,0,1-.59.54,13.39,13.39,0,0,0-1.53.21Z"/><path class="cls-19" d="M13.49,41.67a.53.53,0,0,1-.41-.66c.05-.45.07-.9.1-1.34,0-.08,0-.16,0-.32l-1,1.41-.37-.27,1.5-2.09a.49.49,0,0,1,.39.59,10.27,10.27,0,0,0,0,1.67l1-1.35.37.26Z"/><path class="cls-19" d="M7.9,33.93c-.28.13-.55.26-.82.36a.34.34,0,0,1-.28,0A1.66,1.66,0,0,1,6,33.2a1.32,1.32,0,0,1,1.15-1.58,1.25,1.25,0,0,1,1.51,1,1,1,0,0,1-.31,1c-.17-.2-.36-.35-.16-.65a.52.52,0,0,0-.17-.69,1.09,1.09,0,0,0-.65-.23,1.2,1.2,0,0,0-.58.23.78.78,0,0,0,0,1.38c.1.06.27,0,.45,0l-.25-.6.35-.18Z"/><path class="cls-19" d="M8.09,36.65,10.14,35A10.3,10.3,0,0,1,11,36.18c.26.48-.05,1.06-.7,1.49a1.06,1.06,0,0,1-1.4-.07l-.15-.15C8.53,37.19,8.32,36.94,8.09,36.65Zm.63.14c.28.28.41.72.87.63a1.27,1.27,0,0,0,1-.84c.13-.41-.24-.62-.46-.92Z"/><path class="cls-19" d="M23.69,26.77,17.81,29l0-.05L19.34,28l2.85-1.66a.43.43,0,0,1,.3-.07l1.21.44Z"/><path class="cls-19" d="M30.36,41.2l1.1-.48a.84.84,0,0,1,1,.24A2.8,2.8,0,0,1,33,42a.92.92,0,0,1-.61,1.16l-1,.44Zm.62.16L31.73,43c.34-.2.79-.21.83-.65a1.31,1.31,0,0,0-.51-1.16C31.67,40.9,31.37,41.26,31,41.36Z"/><path class="cls-19" d="M4.84,27.85l.24,1.43-.4.07-.33-1.94L6.92,27l.32,1.88-.38.08-.27-1.37c-.61,0-.61,0-.52.58l.12.66v.13L5.81,29l-.23-1.3Z"/><path class="cls-19" d="M4.54,24.29l-.38,0,.13-2,2.6.19L6.76,24.4l-.42,0L6.45,23l-.61-.05-.12,1.28c-.28.07-.41,0-.37-.29s0-.65.07-1l-.74-.08Z"/><path class="cls-19" d="M42.33,29.31l.38.11-.36,1.25a4.23,4.23,0,0,0,.58.17s.16-.08.19-.15c.13-.4.25-.8.37-1.21l.39.12-.55,1.89-2.51-.74.54-1.85.39.13c-.11.35-.19.7-.31,1s0,.4.25.43l.25.07Z"/><path class="cls-19" d="M15.1,41.76c.24,0,.44.05.44.4s.43.56.76.47a.28.28,0,0,0,.15-.49c-.17-.18-.38-.33-.57-.5a.71.71,0,0,1,.73-1.22c.63.21.87.51.8,1a.79.79,0,0,1-.05.13c-.22-.08-.44-.11-.46-.42s-.4-.42-.63-.37-.28.24-.12.41.39.34.58.51a.69.69,0,0,1,.3.77,1,1,0,0,1-.42.55,1.18,1.18,0,0,1-1.23-.25.84.84,0,0,1-.33-.89S15.08,41.81,15.1,41.76Z"/><path class="cls-19" d="M25.79,43.19l1.27-.08c.1.41.1.4-.27.42l-1,.09a5.2,5.2,0,0,0,.05.59c0,.06.16.13.24.13.4,0,.79-.05,1.21-.08l0,.39-1.95.16-.21-2.6,1.9-.16.05.41-1.41.11Z"/><path class="cls-19" d="M35.85,41.26c-.39.53-.64.07-.93-.11-.24.14-.46.29-.7.4s-.26.22-.19.4c.15.38-.09.49-.4.6-.11-.71-.21-1.41-.32-2.11,0-.11,0-.22-.05-.33s-.06-.32.14-.42a.38.38,0,0,1,.51,0C34.55,40.23,35.2,40.74,35.85,41.26Zm-2,0,.68-.38-.84-.7Z"/><path class="cls-19" d="M39.2,38.31c-.31.4-.31.4-.72.2a.26.26,0,0,0-.38.05,1,1,0,0,1-.24.23c-.31.21-.43.44-.21.8s-.17.31-.29.54l-.44-1.05c-.18-.45-.36-.9-.55-1.35a.28.28,0,0,1,.09-.39c.13-.11.21-.22.42-.11C37.64,37.6,38.41,37.94,39.2,38.31Zm-1.9.44.56-.53-1-.48Z"/><path class="cls-19" d="M24.74,20.41V18.62L28,18.46Z"/><path class="cls-19" d="M11.53,40.27c-.4-.28-.41-.29-.24-.72a.27.27,0,0,0-.08-.37A1.24,1.24,0,0,1,11,39c-.51-.46-.3-.45-1-.11l-.38-.35.69-.34,1.63-.79c.15-.07.26-.08.37.05s.25.19.16.41C12.15,38.65,11.85,39.45,11.53,40.27ZM11.92,38l-.06-.05L11,38.4l.57.51Z"/><path class="cls-19" d="M44.43,26.73l-.93-.37c-.49-.2-1-.41-1.47-.6a.26.26,0,0,1-.18-.36c0-.12.08-.29.18-.33.76-.3,1.53-.59,2.31-.88h.08c.13.37.09.49-.25.59a.41.41,0,0,0-.32.47,1.22,1.22,0,0,1,0,.33.41.41,0,0,0,.36.55C44.56,26.2,44.42,26.47,44.43,26.73Zm-1-1.67-1,.33v.07l.94.35Z"/><path class="cls-19" d="M19.42,41.51l.47.18c-.2.61-.39,1.22-.6,1.81a.67.67,0,0,1-.8.46,2.7,2.7,0,0,1-.8-.27.65.65,0,0,1-.32-.77c.16-.61.34-1.23.52-1.86l.49.13c-.16.56-.33,1.1-.49,1.65a.48.48,0,0,0,.33.65.46.46,0,0,0,.67-.33C19.07,42.63,19.24,42.08,19.42,41.51Z"/><path class="cls-19" d="M17.85,27.16l.68-2.37,2.13.79Z"/><path class="cls-19" d="M21,18.47l2.89.12c.2,0,.27.06.27.26,0,.49,0,1,0,1.53Z"/><path class="cls-19" d="M23.21,24.17c-.15,0-.23.12-.32.12-1.18,0-2.36,0-3.56-.05.53-.33,1.08-.63,1.6-1a.59.59,0,0,1,.75,0C22.16,23.57,22.66,23.84,23.21,24.17Z"/><path class="cls-19" d="M31,27.07l-2.66-1.51,2-.75Z"/><path class="cls-19" d="M29.64,24.3H26.25a1.39,1.39,0,0,1-.37-.12l1.78-1a.26.26,0,0,1,.19,0l1.8,1.08Z"/><path class="cls-19" d="M22.73,10.09l1.35,1-2,1.54-.06,0Z"/><path class="cls-19" d="M34.07,39.41a.56.56,0,0,1,.86-.22c.21.1.44.15.7.25a4.89,4.89,0,0,0-.13-.86c-.13-.38.11-.5.39-.67,0,.45.11.87.15,1.29a1.26,1.26,0,0,0,.38.84c.13.14.24.3.37.47l-.42.33C35.94,39.8,34.92,39.74,34.07,39.41Z"/><path class="cls-19" d="M26.84,12.6l-2-1.48,1.31-1,.7,2.47Z"/><path class="cls-19" d="M44.46,23.78,41.9,24l-.07-.48,2.18-.2c0-.34,0-.65-.08-1s0-.37.4-.35Z"/><path class="cls-19" d="M18.75,24l.6-2.13,1.48.87Z"/><path class="cls-19" d="M26.47,22.32l-1.73,1v-2Z"/><path class="cls-19" d="M24.75,11.62l2,1.49,0,.07-1.94.09Z"/><path class="cls-19" d="M24.14,13.27l-1.83-.1,0-.08,1.85-1.41Z"/><path class="cls-19" d="M29.59,22l.55,2-1.93-1.16Z"/><path class="cls-19" d="M22.58,22.27l1.57-.94v1.83Z"/><path class="cls-19" d="M7.2,35.35,7,34.92l2.26-1.29.26.43Z"/><path class="cls-19" d="M39.46,33.57l.25-.43L42,34.41l-.25.43Z"/><path class="cls-19" d="M24.75,13.58l1.94-.11-1.94,1.35Z"/><path class="cls-19" d="M22.37,13.46l1.78.12v1.19l-1.81-1.26Z"/><path class="cls-19" d="M19.57,24.61h2.71l0,.05c-.35.19-.69.39-1,.57,0,0-.13,0-.2,0l-1.5-.56Z"/><path class="cls-19" d="M24.74,25.07l1.37.81-1.37.51Z"/><path class="cls-19" d="M29.39,24.66c-.46.17-.91.35-1.37.51a.49.49,0,0,1-.29,0c-.31-.16-.61-.35-1-.57h2.65Z"/><path class="cls-19" d="M24.18,25.16v1.2l-1.26-.46Z"/><path class="cls-19" d="M25.72,9.86l-1,.74V9.86Z"/><path class="cls-19" d="M24.14,9.87v.68l-.91-.68Z"/><path d="M23.74,44.41h0c-.45,0-.6-.23-.45-.64,0,0,.07-.11.1-.1a6.54,6.54,0,0,1,.89.09c.08,0,.16.22.15.32a.39.39,0,0,1-.22.28,1.27,1.27,0,0,1-.44.06Z"/><path d="M23.29,42.62a3.51,3.51,0,0,1,.73,0c.13,0,.22.19.33.3-.11.1-.2.28-.32.3a3.6,3.6,0,0,1-.74,0Z"/><path d="M6.37,29.88c0-.05,0-.06,0-.06.2-.06.57-.2.59-.15a2.37,2.37,0,0,1,.26.83c0,.07-.17.24-.27.26a.42.42,0,0,1-.34-.18A4.65,4.65,0,0,1,6.37,29.88Z"/><path d="M41.93,28.2c0-.25.08-.48.13-.7a.32.32,0,0,1,.4-.28.31.31,0,0,1,.28.37,1,1,0,0,1,0,.24C42.62,28.43,42.55,28.46,41.93,28.2Z"/><path d="M27.91,42.27c.24-.05.47-.11.7-.14s.35,0,.4.23a.35.35,0,0,1-.24.44l-.2.06C28,43,27.9,43,27.91,42.27Z"/><path d="M8.72,36.79l1.39-1.13c.22.3.59.51.46.92a1.27,1.27,0,0,1-1,.84C9.13,37.51,9,37.07,8.72,36.79Z"/><path d="M31,41.36c.39-.1.69-.46,1.07-.16a1.31,1.31,0,0,1,.51,1.16c0,.44-.49.45-.83.65Z"/><path d="M33.9,41.25l-.16-1.08.84.7Z"/><path d="M37.3,38.75l-.44-1,1,.48Z"/><path d="M11.92,38l-.38.92L11,38.4l.89-.46Z"/><path d="M43.43,25.06v.75l-.94-.35v-.07Z"/></g></g></svg>